<svg width="1101" height="394" viewBox="0 0 1101 394" fill="none" xmlns="http://www.w3.org/2000/svg">
<circle cx="197" cy="197" r="197" fill="black"/>
<path d="M306.493 267.199C306.646 265.466 306.748 263.732 306.748 261.947V240.276H200.179V267.301H279.265C276.817 282.19 264.069 293.663 248.619 294.275V294.173H200.179V267.301H173.154L146.129 253.738V280.763L173.154 294.326H200.179V321.504H248.619V321.351C278.959 320.688 303.842 297.131 306.493 267.301V267.199Z" fill="white"/>
<path d="M140.823 208.152C158.568 208.152 173.049 222.531 173.151 240.276H200.176C200.074 207.897 173.865 181.535 141.537 181.127H86.4678V263.018C87.0797 295.295 113.493 321.351 145.871 321.351H146.126V294.326H145.871C128.076 294.326 113.646 279.946 113.493 262.202V208.152H140.823Z" fill="white"/>
<path fill-rule="evenodd" clip-rule="evenodd" d="M86.4678 132.432C86.4678 130.647 86.5698 128.913 86.7227 127.18V127.078C89.3742 97.2484 114.257 73.6909 144.597 73.028V72.875H193.037V100.053H220.062L247.087 113.616V140.641L220.062 127.078H193.037V154.102H220.06C220.162 171.847 234.643 186.226 252.388 186.226H279.719V132.176C279.566 114.432 265.135 100.053 247.34 100.053H247.085V73.0277H247.34C279.719 73.0277 306.132 99.0837 306.744 131.361V213.251H251.674C219.346 212.843 193.137 186.481 193.035 154.103H86.4678V132.432ZM193.037 127.078V100.206H144.597V100.104C129.147 100.716 116.399 112.189 113.952 127.078H193.037Z" fill="white"/>
<path d="M582.348 197.014L553.027 226.334L566.462 239.769L595.783 210.449L625.538 240.204L638.973 226.769L609.218 197.014L639 167.231L625.565 153.796L595.783 183.579L566.435 154.231L553 167.666L582.348 197.014Z" fill="#140B1E"/>
<path d="M889.235 143.701C872.53 118.977 879.065 85.4143 903.831 68.7373C928.598 52.0605 962.217 58.5843 978.921 83.3089L1091.75 250.299C1108.45 275.024 1101.92 308.585 1077.15 325.263C1052.38 341.939 1018.77 335.415 1002.06 310.691L953.145 238.292C946.857 230.381 934.056 231.613 926.37 239.285C919.996 245.649 917.91 261.927 916.103 276.021C915.838 278.087 915.579 280.108 915.314 282.042C914.333 291.267 911.142 300.393 905.584 308.62C887.422 335.5 850.862 342.586 823.936 324.455C797.009 306.324 789.895 269.828 808.057 242.946C817.476 229.006 831.844 220.388 847.251 217.852L847.229 217.83C891.743 211.386 899.996 161.232 891.849 147.571L889.235 143.701Z" fill="#140B1E"/>
</svg>
