<svg width="221" height="249" viewBox="0 0 221 249" fill="none" xmlns="http://www.w3.org/2000/svg">
<path d="M220.026 194.324C220.179 192.591 220.281 190.857 220.281 189.072V167.401H113.711V194.426H192.797C190.349 209.315 177.602 220.788 162.152 221.4V221.298H113.711V194.426H86.686L59.6611 180.863V207.888L86.686 221.451H113.711V248.629H162.152V248.476C192.491 247.813 217.374 224.256 220.026 194.426V194.324Z" fill="#140B1E"/>
<path d="M54.3557 135.277C72.1003 135.277 86.5815 149.656 86.6835 167.401H113.708C113.606 135.022 87.3974 108.66 55.0695 108.252H0V190.143C0.611884 222.42 27.0249 248.476 59.4037 248.476H59.6587V221.451H59.4037C41.6081 221.451 27.1778 207.071 27.0249 189.327V135.277H54.3557Z" fill="#140B1E"/>
<path fill-rule="evenodd" clip-rule="evenodd" d="M0 59.5567C0 57.772 0.101981 56.0383 0.254951 54.3047V54.2027C2.90645 24.3734 27.7897 0.815857 58.1289 0.152985V0H106.57V27.1778H133.595L160.619 40.7412V67.7661L133.595 54.2027H106.57V81.2272H133.592C133.694 98.9719 148.175 113.351 165.92 113.351H193.251V59.3014C193.098 41.5568 178.668 27.1775 160.872 27.1775H160.617V0.152664H160.872C193.251 0.152664 219.664 26.2087 220.276 58.4856V140.376H165.206C132.878 139.968 106.67 113.606 106.567 81.2276H0V59.5567ZM106.57 54.2027V27.3308H58.1289V27.2288C42.6789 27.8407 29.9313 39.3135 27.4838 54.2027H106.57Z" fill="#140B1E"/>
</svg>
